# xmcd
#
# Track frame offsets: 
#        150
#        20760
#        42172
#        62631
#        82630
#        103613
#        124360
#        148749
#        163760
#        184860
#        207010
#
# Disc length: 3033 seconds
#
# Revision: 2
# Processed by: cddbd v1.5.2PL0 Copyright (c) Steve Scherf et al.
# Submitted via: ExactAudioCopy v0.99pb5
#
DISCID=940bd70b
DTITLE=Elio Reve y su Charangon - Fresquecito
DYEAR=2007
DGENRE=Salsa
TTITLE0=Fresquecito.com
TTITLE1=El Telefono
TTITLE2=El Dinero
TTITLE3=El Martes
TTITLE4=La Viuda
TTITLE5=Ya No Te Doy Mas Na
TTITLE6=El Jonron
TTITLE7=Vamos a Bailar El Changui
TTITLE8=A Sancochar Boniato
TTITLE9=No Le Pegues Con El Pie
TTITLE10=La Madrugada
EXTD=YEAR: 2007
EXTT0=
EXTT1=
EXTT2=
EXTT3=
EXTT4=
EXTT5=
EXTT6=
EXTT7=
EXTT8=
EXTT9=
EXTT10=
PLAYORDER=
